HIERARCHY
ROOT root
{
	OFFSET 0.000000 0.000000 0.000000
	CHANNELS 6 Xposition Yposition Zposition Zrotation Yrotation Xrotation
	JOINT lhip
	{
		OFFSET 0.058581 -0.082280 -0.017664
		CHANNELS 3 Zrotation Yrotation Xrotation
		JOINT lknee
		{
			OFFSET 0.043451 -0.386469 0.008037
			CHANNELS 3 Zrotation Yrotation Xrotation
			JOINT lankle
			{
				OFFSET -0.014790 -0.426874 -0.037428
				CHANNELS 3 Zrotation Yrotation Xrotation
				JOINT ltoe
				{
					OFFSET 0.041054 -0.060286 0.122042
					CHANNELS 3 Zrotation Yrotation Xrotation
					End Site
					{
						OFFSET 0.000000 0.000000 0.000000
					}
				}
			}
		}
	}
	JOINT rhip
	{
		OFFSET -0.060310 -0.090513 -0.013543
		CHANNELS 3 Zrotation Yrotation Xrotation
		JOINT rknee
		{
			OFFSET -0.043257 -0.383688 -0.004843
			CHANNELS 3 Zrotation Yrotation Xrotation
			JOINT rankle
			{
				OFFSET 0.019056 -0.420046 -0.034562
				CHANNELS 3 Zrotation Yrotation Xrotation
				JOINT rtoe
				{
					OFFSET -0.034840 -0.062106 0.130323
					CHANNELS 3 Zrotation Yrotation Xrotation
					End Site
					{
						OFFSET 0.000000 0.000000 0.000000
					}
				}
			}
		}
	}
	JOINT lowerback
	{
		OFFSET 0.004439 0.124404 -0.038385
		CHANNELS 3 Zrotation Yrotation Xrotation
		JOINT upperback
		{
			OFFSET 0.004488 0.137956 0.026820
			CHANNELS 3 Zrotation Yrotation Xrotation
			JOINT chest
			{
				OFFSET -0.002265 0.056032 0.002855
				CHANNELS 3 Zrotation Yrotation Xrotation
				JOINT lowerneck
				{
					OFFSET -0.013390 0.211636 -0.033468
					CHANNELS 3 Zrotation Yrotation Xrotation
					JOINT upperneck
					{
						OFFSET 0.010113 0.088937 0.050410
						CHANNELS 3 Zrotation Yrotation Xrotation
						End Site
						{
							OFFSET 0.000000 0.000000 0.000000
						}
					}
				}
				JOINT lclavicle
				{
					OFFSET 0.071702 0.114000 -0.018898
					CHANNELS 3 Zrotation Yrotation Xrotation
					JOINT lshoulder
					{
						OFFSET 0.122921 0.045205 -0.019046
						CHANNELS 3 Zrotation Yrotation Xrotation
						JOINT lelbow
						{
							OFFSET 0.255332 -0.015649 -0.022946
							CHANNELS 3 Zrotation Yrotation Xrotation
							JOINT lwrist
							{
								OFFSET 0.265709 0.012698 -0.007375
								CHANNELS 3 Zrotation Yrotation Xrotation
								End Site
								{
									OFFSET 0.000000 0.000000 0.000000
								}
							}
						}
					}
				}
				JOINT rclavicle
				{
					OFFSET -0.082954 0.112472 -0.023707
					CHANNELS 3 Zrotation Yrotation Xrotation
					JOINT rshoulder
					{
						OFFSET -0.113228 0.046853 -0.008472
						CHANNELS 3 Zrotation Yrotation Xrotation
						JOINT relbow
						{
							OFFSET -0.260127 -0.014369 -0.031269
							CHANNELS 3 Zrotation Yrotation Xrotation
							JOINT rwrist
							{
								OFFSET -0.269108 0.006794 -0.006027
								CHANNELS 3 Zrotation Yrotation Xrotation
								End Site
								{
									OFFSET 0.000000 0.000000 0.000000
								}
							}
						}
					}
				}
			}
		}
	}
}
MOTION
Frames: 13
Frame Time: 0.033333
-1.237659 0.307339 1.002347 101.284282 -0.102202 86.327194 -4.340950 4.217659 16.707388 -3.571487 -22.086981 5.357453 6.455172 6.213546 -17.765240 0.000000 -0.000000 0.000000 -4.401106 -3.109204 -28.555182 -0.440944 -12.400897 10.927760 13.413193 -9.861298 -2.479538 0.000000 -0.000000 0.000000 -1.362767 -6.906743 17.023352 -0.449625 -3.784669 -5.656650 -0.769792 -5.967902 1.074436 2.751289 9.038907 -12.592783 0.112536 -0.696523 9.608115 -24.965074 -2.746820 0.042434 -51.939886 -18.035155 9.965153 10.491937 -39.685450 1.416122 -0.008196 -5.450304 0.517544 32.238711 1.778530 -5.241779 55.563029 8.626137 12.091065 -20.689257 23.173110 -20.227719 6.486188 5.697801 -4.587967 
-1.210018 0.306785 1.000477 101.681268 -0.050343 86.717269 -3.753986 4.335942 17.642822 -3.758507 -22.804956 6.509499 5.812573 6.225425 -17.675021 0.000000 -0.000000 0.000000 -4.015103 -2.555014 -28.322194 -0.238598 -12.607789 13.324520 12.408902 -10.103724 -3.465555 0.000000 -0.000000 0.000000 -1.187740 -7.505767 16.921379 -0.240998 -4.055461 -5.342593 -0.874946 -6.076701 1.026474 2.828890 9.482443 -12.804365 -0.008023 -0.324777 9.437055 -25.268730 -2.875069 0.135039 -51.637938 -17.580671 9.794827 10.647309 -38.200562 1.720128 -0.450045 -5.490937 0.799460 32.545843 1.857536 -5.395639 55.203972 8.433636 11.928880 -20.234133 22.736904 -19.971344 6.818141 5.799174 -5.189201 
-1.179572 0.305413 0.999441 101.894355 -0.357857 87.637253 -3.769418 4.007410 17.785785 -3.970536 -22.864717 8.327055 5.279822 6.097915 -16.872342 0.000000 -0.000000 0.000000 -3.179812 -1.835085 -27.273059 -0.254187 -10.836352 14.699500 11.085140 -9.220719 -4.122301 0.000000 -0.000000 0.000000 -1.341879 -7.308631 15.884488 -0.047242 -4.357366 -5.010593 -0.888529 -6.465807 1.022596 2.609619 9.788353 -12.811995 0.072757 0.075570 8.969501 -25.403293 -2.878073 0.428520 -52.099826 -17.009581 9.630007 11.498125 -35.638798 1.364896 -0.438026 -4.969800 0.899301 32.499278 1.605473 -5.323533 55.422191 7.816510 11.924790 -20.068923 22.015658 -19.359955 6.731955 5.310145 -6.100111 
-1.147573 0.303888 1.000596 101.682897 -0.566525 88.838109 -4.297314 3.133673 16.804773 -4.078651 -22.502706 11.450817 4.470345 6.131073 -14.828670 0.000000 -0.000000 0.000000 -2.051452 -1.496694 -25.909977 -1.058171 -11.243015 12.565892 8.926500 -10.666433 -1.099138 0.000000 -0.000000 0.000000 -1.228249 -7.093249 14.948755 -0.004780 -4.443564 -5.477973 -0.760079 -6.645383 1.045168 2.579288 9.123621 -12.059749 0.220497 0.990100 9.530102 -25.839605 -2.037722 0.503277 -52.763161 -16.412617 9.221678 12.086057 -32.397188 1.600144 -1.161974 -4.560507 0.991743 32.330468 0.832650 -5.068902 55.585947 7.463540 12.232777 -19.359119 20.591876 -18.695706 6.949875 5.194564 -6.932762 
-1.114456 0.302732 1.005170 100.796351 -0.237802 89.789965 -4.469941 2.353645 15.529194 -4.552875 -21.408888 15.643030 3.412150 6.114281 -10.865564 0.000000 -0.000000 0.000000 -1.383627 -1.298912 -24.656713 -0.200413 -10.450379 11.179096 8.449787 -10.293081 3.435187 0.000000 -0.000000 0.000000 -0.532948 -6.923773 13.912238 0.241713 -4.284843 -5.193271 -0.784021 -6.393959 0.772310 2.084550 8.124843 -11.306630 0.096145 1.548874 9.110616 -26.679931 -1.046916 0.475385 -53.317766 -15.643102 8.766080 13.301733 -29.206126 0.364231 -1.590861 -3.610841 0.829922 32.135782 0.066440 -4.774734 55.632749 7.264623 12.305930 -18.362922 19.070319 -18.061344 7.095475 4.716594 -7.479437 
-1.078703 0.300412 1.011695 99.306583 0.636053 90.034288 -3.726479 2.152990 14.492525 -5.463938 -19.900783 20.251628 1.056944 5.657899 -5.864208 0.000000 -0.000000 0.000000 -0.303304 -0.057989 -22.811649 0.482227 -10.141748 11.617452 6.726795 -9.196890 3.192137 0.000000 -0.000000 0.000000 0.301392 -7.061568 13.791177 0.502350 -3.701855 -5.243121 -0.757876 -5.594447 0.427552 1.990708 7.731242 -10.618687 -0.162592 1.916558 9.015904 -27.225914 0.194253 0.364694 -53.918711 -14.411451 8.330976 14.268640 -26.429658 -0.762699 -2.131563 -3.041965 0.168585 32.052498 -0.273554 -4.361166 55.761369 6.716325 12.165200 -17.592245 17.011776 -17.502988 7.244487 4.146657 -8.065925 
-1.042180 0.297397 1.017542 97.767691 1.185830 90.129279 -3.092014 1.875334 12.530302 -6.733209 -17.732793 25.987215 -1.566596 4.388685 1.525966 0.000000 -0.000000 0.000000 1.031721 0.533867 -20.656999 1.212750 -8.442131 11.680620 4.458754 -8.333643 2.406682 0.000000 -0.000000 0.000000 0.422016 -6.363095 12.990511 0.990097 -3.291055 -4.448337 -0.527261 -5.224811 0.359438 1.635808 7.617555 -9.990039 0.071824 2.145020 8.994144 -27.434212 1.440745 0.512464 -54.305990 -13.244253 7.996859 14.790357 -24.767736 -1.236107 -2.584694 -2.757577 -1.349853 32.129280 -0.661815 -3.732691 55.656347 6.782241 12.076309 -16.591753 15.071982 -16.427950 7.267998 3.538874 -8.642183 
-1.007021 0.293808 1.021642 96.393305 1.312496 90.207736 -2.548900 1.015081 9.343162 -8.838545 -15.230056 33.065863 -4.858159 3.095182 7.875226 0.000000 -0.000000 0.000000 2.346442 0.374851 -18.384070 1.350009 -7.359117 11.440089 2.117720 -7.227923 1.655817 0.000000 -0.000000 0.000000 -0.006037 -5.169190 12.757871 1.340826 -3.235761 -4.347090 -0.242269 -4.760420 0.186896 1.624848 7.608400 -8.880099 0.675672 2.059398 9.046073 -27.095002 2.759143 0.717716 -54.313249 -11.958474 7.824735 14.369302 -24.425056 -0.336489 -3.194161 -2.338579 -2.158891 32.355756 -1.331004 -3.225099 55.952950 6.275405 11.804893 -16.165592 13.514607 -15.399268 7.273587 2.996402 -9.045430 
-0.973947 0.292053 1.024163 95.959696 1.179527 90.035444 -2.346662 0.083283 5.646455 -10.722784 -13.253200 40.852718 -5.050076 2.379039 10.969947 0.000000 -0.000000 0.000000 2.854462 0.231948 -16.114638 1.641690 -6.077547 11.517646 0.239225 -7.756640 0.786058 0.000000 -0.000000 0.000000 -0.413717 -4.208432 12.850621 1.651669 -3.188787 -4.171628 -0.052546 -4.490502 0.534091 1.929687 6.488009 -9.081179 -0.331001 1.770009 9.004377 -27.550508 3.768759 0.695862 -52.964657 -11.098244 7.587705 13.309887 -25.405537 0.994952 -4.093204 -2.383120 -2.552240 32.767862 -1.910289 -3.192476 55.853765 5.503681 11.715319 -16.022837 12.754366 -15.123935 7.417353 2.370845 -8.735772 
-0.941972 0.290605 1.025201 95.420803 0.929706 89.349301 -2.054657 -0.946958 2.161704 -12.115782 -10.110570 48.076002 -2.789883 2.459090 8.435880 0.000000 -0.000000 0.000000 3.138920 0.241251 -13.630764 1.783760 -5.480023 12.466953 -0.710510 -7.782865 -1.616541 0.000000 -0.000000 0.000000 -0.937279 -3.191630 13.711800 1.686569 -3.041831 -4.349226 -0.013016 -3.986178 0.827610 1.775558 6.684635 -8.443393 0.435533 1.930861 9.099171 -27.338830 4.474174 0.916061 -52.231874 -10.343171 6.994309 12.859207 -26.730834 1.635388 -4.325417 -2.533745 -3.244581 33.012919 -2.282214 -2.717125 56.046367 4.766291 11.312385 -15.722528 11.635773 -14.058028 7.464136 1.851385 -8.463413 
-0.911448 0.288909 1.025611 94.979375 0.686747 89.070954 -1.343190 -1.898963 -2.121822 -11.260525 -5.722252 53.585609 0.544505 4.356445 3.449047 0.000000 -0.000000 0.000000 3.490845 0.047743 -11.200942 1.768080 -4.335473 12.540996 -1.261287 -8.439609 -3.344458 0.000000 -0.000000 0.000000 -1.409724 -1.837248 13.942090 1.749928 -2.768511 -4.397535 0.104318 -3.534685 1.642093 2.013786 6.144796 -8.730909 0.582389 1.712960 9.510552 -27.582525 5.099995 0.865915 -51.483492 -10.384057 6.362061 12.734623 -27.533999 1.490134 -4.478134 -2.481759 -4.189556 33.299698 -2.552432 -2.769489 56.068772 4.256933 11.186531 -15.376067 9.748253 -13.560540 7.323956 1.362666 -8.280186 
-0.881786 0.287919 1.026241 94.263548 0.274331 88.494632 -0.702754 -2.339712 -5.798146 -10.097635 -2.291884 56.700228 1.871102 6.408315 -1.062628 0.000000 -0.000000 0.000000 3.443297 -0.629130 -8.730509 1.926964 -3.140556 13.054396 -1.198780 -8.388775 -5.387177 0.000000 -0.000000 0.000000 -1.970218 -0.338925 14.488521 1.693749 -2.347784 -4.386302 0.299616 -2.820006 2.321714 2.015764 5.586233 -8.921619 0.763543 0.795706 9.729628 -27.707809 5.531018 0.207615 -51.398446 -10.787593 5.743185 13.109756 -27.411774 0.203300 -4.143699 -2.320462 -5.376282 33.443992 -2.807121 -2.738376 56.091810 3.336203 11.111426 -15.002197 8.301680 -13.270840 6.998536 0.643057 -8.370857 
-0.852889 0.288014 1.026557 93.619234 -0.255476 88.165496 -0.394967 -3.112472 -9.370752 -9.273593 -0.104962 57.527176 2.834283 7.712724 -4.002902 0.000000 -0.000000 0.000000 3.294372 -1.242908 -6.447551 1.721536 -1.938050 13.334147 -1.057591 -8.218461 -7.119416 0.000000 -0.000000 0.000000 -2.321542 1.089099 15.106512 1.558577 -1.898175 -4.860454 0.459301 -2.288976 3.039623 2.225616 5.209137 -8.405573 0.853599 0.615127 10.514514 -27.851821 6.205246 -0.346946 -51.281817 -10.876348 5.337790 13.084840 -27.731586 -0.540745 -3.661573 -2.198779 -6.194276 33.332235 -3.467031 -2.532214 56.369419 2.199356 11.038379 -14.959443 7.402279 -13.282113 6.950291 0.278656 -8.437507 
